<?xml version="1.0" encoding="UTF-8"?>
<svg id="_图层_2" data-name="图层 2" xmlns="http://www.w3.org/2000/svg" viewBox="0 0 326.98 171.08">
  <defs>
    <style>
      .cls-1 {
        fill: none;
        stroke: #000;
        stroke-miterlimit: 10;
      }
    </style>
  </defs>
  <g id="_图层_1-2" data-name="图层 1">
    <g>
      <rect class="cls-1" x=".5" y="43.02" width="325.98" height="127.56"/>
      <polygon class="cls-1" points="319.4 .5 319.4 31.99 305.22 31.99 305.22 .5 298.14 .5 298.14 31.99 283.96 31.99 283.96 .5 276.88 .5 276.88 31.99 262.7 31.99 262.7 .5 255.62 .5 255.62 31.99 241.44 31.99 241.44 .5 234.36 .5 234.36 31.99 220.18 31.99 220.18 .5 213.1 .5 213.1 31.99 198.93 31.99 198.93 .5 191.84 .5 191.84 31.99 177.67 31.99 177.67 .5 170.58 .5 170.58 31.99 156.41 31.99 156.41 .5 149.32 .5 149.32 31.99 135.15 31.99 135.15 .5 128.06 .5 128.06 31.99 113.89 31.99 113.89 .5 106.8 .5 106.8 31.99 92.63 31.99 92.63 .5 85.54 .5 85.54 31.99 71.37 31.99 71.37 .5 64.28 .5 64.28 31.99 50.11 31.99 50.11 .5 43.02 .5 43.02 31.99 28.85 31.99 28.85 .5 21.76 .5 21.76 31.99 7.59 31.99 7.59 .5 .5 .5 .5 43.02 326.48 43.02 326.48 .5 319.4 .5"/>
    </g>
  </g>
</svg>